<svg width="44" height="71" viewBox="0 0 44 71" fill="none" xmlns="http://www.w3.org/2000/svg">
<path fill-rule="evenodd" clip-rule="evenodd" d="M33.6464 69.3189C32.997 69.7036 32.2589 69.896 31.4321 69.896H28.7441C27.5281 69.896 26.5041 69.48 25.6721 68.648C24.8401 67.752 24.424 66.696 24.424 65.48V32.936C24.424 32.552 24.2641 32.232 23.9441 31.976L30.8723 27.976C31.1923 28.232 31.3522 28.552 31.3522 28.936V61.48C31.3522 62.696 31.7683 63.752 32.6003 64.648C33.4323 65.48 34.4563 65.896 35.6723 65.896H38.3603C39.1871 65.896 39.9252 65.7036 40.5746 65.3189L33.6464 69.3189Z" fill="#9013FE"/>
<path fill-rule="evenodd" clip-rule="evenodd" d="M23.944 31.976C23.6879 31.72 23.4 31.592 23.08 31.592H13.768C13.5376 31.592 13.3072 31.6584 13.0768 31.7911L20.005 27.7911C20.2354 27.6584 20.4658 27.592 20.6962 27.592H30.0082C30.3282 27.592 30.6161 27.72 30.8722 27.976L23.944 31.976Z" fill="#9013FE"/>
<path fill-rule="evenodd" clip-rule="evenodd" d="M13.0768 31.7911C12.9872 31.8427 12.8976 31.9043 12.808 31.976L19.7362 27.976C19.8258 27.9043 19.9154 27.8427 20.005 27.7911L13.0768 31.7911Z" fill="#9013FE"/>
<path fill-rule="evenodd" clip-rule="evenodd" d="M12.8081 31.976C12.5521 32.232 12.4241 32.552 12.4241 32.936V65.48C12.4241 66.696 12.0081 67.752 11.1761 68.648C10.9098 68.9142 10.6239 69.1379 10.3183 69.3189L17.2465 65.3189C17.5521 65.1379 17.838 64.9142 18.1043 64.648C18.9363 63.752 19.3523 62.696 19.3523 61.48V28.936C19.3523 28.552 19.4803 28.232 19.7363 27.976L12.8081 31.976Z" fill="#9013FE"/>
<path fill-rule="evenodd" clip-rule="evenodd" d="M10.3183 69.3189C9.66897 69.7036 8.93085 69.896 8.10404 69.896H5.41599C4.19999 69.896 3.14399 69.48 2.24799 68.648L9.17619 64.648C10.0722 65.48 11.1282 65.896 12.3442 65.896H15.0322C15.859 65.896 16.5972 65.7036 17.2465 65.3189L10.3183 69.3189Z" fill="#9013FE"/>
<path fill-rule="evenodd" clip-rule="evenodd" d="M2.248 68.648C1.416 67.752 1 66.696 1 65.48V9.41599C1 8.13599 1.416 7.07999 2.248 6.24799C2.5168 5.99839 2.8 5.78623 3.0976 5.61151L10.0258 1.61151C9.7282 1.78623 9.445 1.99839 9.1762 2.24799C8.3442 3.07999 7.9282 4.13599 7.9282 5.41599V61.48C7.9282 62.696 8.3442 63.752 9.1762 64.648L2.248 68.648Z" fill="#9013FE"/>
<path fill-rule="evenodd" clip-rule="evenodd" d="M3.0976 5.61152C3.792 5.20384 4.5648 5 5.416 5H8.10405C9.31995 5 10.344 5.416 11.176 6.248C12.008 7.08 12.424 8.136 12.424 9.416V19.016C12.424 19.336 12.552 19.624 12.808 19.88L19.7362 15.88C19.4802 15.624 19.3522 15.336 19.3522 15.016V5.416C19.3522 4.136 18.9362 3.08 18.1042 2.248C17.2722 1.416 16.2481 1 15.0322 1H12.3442C11.493 1 10.7202 1.20384 10.0258 1.61152L3.0976 5.61152Z" fill="#9013FE"/>
<path fill-rule="evenodd" clip-rule="evenodd" d="M12.808 19.88C13.128 20.072 13.448 20.168 13.768 20.168H25.096C27.08 20.168 28.872 20.648 30.472 21.608C32.072 22.568 33.352 23.88 34.312 25.544C35.2719 27.144 35.752 28.936 35.752 30.92V65.48C35.752 66.696 35.336 67.752 34.504 68.648C34.2378 68.9142 33.9519 69.1379 33.6463 69.3189L40.5745 65.3189C40.8801 65.1379 41.166 64.9142 41.4322 64.648C42.2642 63.752 42.6802 62.696 42.6802 61.48V26.92C42.6802 24.936 42.2001 23.144 41.2402 21.544C40.2802 19.88 39.0002 18.568 37.4002 17.608C35.8002 16.648 34.0082 16.168 32.0242 16.168H20.6962C20.3762 16.168 20.0562 16.072 19.7362 15.88L12.808 19.88Z" fill="#9013FE"/>
<path d="M35.752 65.48C35.752 66.696 35.3361 67.752 34.5041 68.648C33.6721 69.48 32.6481 69.896 31.4321 69.896H28.744C27.528 69.896 26.5041 69.48 25.6721 68.648C24.8401 67.752 24.424 66.696 24.424 65.48V32.936C24.424 32.552 24.264 32.232 23.944 31.976C23.6879 31.72 23.4 31.592 23.08 31.592H13.7681C13.4481 31.592 13.1281 31.72 12.8081 31.976C12.5521 32.232 12.4241 32.552 12.4241 32.936V65.48C12.4241 66.696 12.0081 67.752 11.1761 68.648C10.3441 69.48 9.31995 69.896 8.10405 69.896H5.416C4.2 69.896 3.144 69.48 2.248 68.648C1.416 67.752 1 66.696 1 65.48V9.416C1 8.136 1.416 7.08 2.248 6.248C3.144 5.416 4.2 5 5.416 5H8.10405C9.31995 5 10.3441 5.416 11.1761 6.248C12.0081 7.08 12.4241 8.136 12.4241 9.416V19.016C12.4241 19.336 12.5521 19.624 12.8081 19.88C13.1281 20.072 13.4481 20.168 13.7681 20.168H25.0961C27.0801 20.168 28.872 20.648 30.472 21.608C32.072 22.568 33.352 23.88 34.312 25.544C35.2719 27.144 35.752 28.936 35.752 30.92V65.48Z" fill="white"/>
</svg>
