<svg width="44" height="72" viewBox="0 0 44 72" fill="none" xmlns="http://www.w3.org/2000/svg">
<path fill-rule="evenodd" clip-rule="evenodd" d="M30.4721 68.552C30.3441 68.6339 30.2148 68.7126 30.0844 68.7879L37.0126 64.7879C37.143 64.7126 37.2723 64.6339 37.4003 64.552L30.4721 68.552Z" fill="#9013FE"/>
<path fill-rule="evenodd" clip-rule="evenodd" d="M30.0844 68.7879C28.5841 69.6546 26.9213 70.088 25.0961 70.088L32.0243 66.088C33.8495 66.088 35.5123 65.6546 37.0126 64.7879L30.0844 68.7879Z" fill="#9013FE"/>
<path fill-rule="evenodd" clip-rule="evenodd" d="M25.0961 70.088H11.7521C10.5361 70.088 9.47996 69.64 8.58396 68.744C7.75206 67.912 7.33606 66.888 7.33606 65.672V62.984C7.33606 61.768 7.75206 60.744 8.58396 59.912C8.85276 59.6624 9.13597 59.4502 9.43358 59.2755L16.3618 55.2755C16.0642 55.4502 15.781 55.6624 15.5122 55.912C14.6803 56.744 14.2643 57.768 14.2643 58.984V61.672C14.2643 62.888 14.6803 63.912 15.5122 64.744C16.4082 65.64 17.4643 66.088 18.6803 66.088H32.0243L25.0961 70.088Z" fill="#9013FE"/>
<path fill-rule="evenodd" clip-rule="evenodd" d="M9.43358 59.2755C10.128 58.8678 10.9009 58.664 11.7521 58.664H23.0801C23.2785 58.664 23.4645 58.6148 23.6383 58.5164L30.5665 54.5164C30.3927 54.6148 30.2067 54.664 30.0083 54.664H18.6803C17.8291 54.664 17.0562 54.8678 16.3618 55.2755L9.43358 59.2755Z" fill="#9013FE"/>
<path fill-rule="evenodd" clip-rule="evenodd" d="M23.6383 58.5164C23.7448 58.4561 23.8467 58.3773 23.9441 58.28L30.8723 54.28C30.7749 54.3773 30.673 54.4561 30.5665 54.5164L23.6383 58.5164Z" fill="#9013FE"/>
<path fill-rule="evenodd" clip-rule="evenodd" d="M23.9441 58.28C24.2641 58.024 24.424 57.736 24.424 57.416V55.976C24.424 55.656 24.2641 55.368 23.9441 55.112L30.8723 51.112C31.1923 51.368 31.3522 51.656 31.3522 51.976V53.416C31.3522 53.736 31.1923 54.024 30.8723 54.28L23.9441 58.28Z" fill="#9013FE"/>
<path fill-rule="evenodd" clip-rule="evenodd" d="M23.944 55.112C23.6879 54.856 23.4 54.728 23.08 54.728H11.7521C8.80805 54.728 6.28 53.704 4.168 51.656C2.056 49.544 1 46.984 1 43.976V15.752C1 13.768 1.48 11.976 2.44 10.376C3.464 8.712 4.776 7.4 6.376 6.44L13.3042 2.44C11.7042 3.4 10.3922 4.712 9.3682 6.376C8.4082 7.976 7.9282 9.768 7.9282 11.752V39.976C7.9282 42.984 8.9842 45.544 11.0962 47.656C13.2082 49.704 15.7363 50.728 18.6803 50.728H30.0082C30.3282 50.728 30.6161 50.856 30.8722 51.112L23.944 55.112Z" fill="#9013FE"/>
<path fill-rule="evenodd" clip-rule="evenodd" d="M6.37601 6.43999C6.40801 6.42079 6.44008 6.40178 6.47223 6.38297L13.4004 2.38297C13.3683 2.40178 13.3362 2.42079 13.3042 2.43999L6.37601 6.43999Z" fill="#9013FE"/>
<path fill-rule="evenodd" clip-rule="evenodd" d="M6.47223 6.38298C8.04771 5.46099 9.80773 5 11.7521 5H25.0961C27.0801 5 28.8721 5.48 30.4721 6.44C32.0721 7.4 33.3521 8.712 34.3121 10.376C35.272 11.976 35.7521 13.768 35.7521 15.752V59.336C35.7521 61.256 35.272 63.016 34.3121 64.616C33.3521 66.28 32.0721 67.592 30.4721 68.552L37.4003 64.552C39.0003 63.592 40.2802 62.28 41.2402 60.616C42.2001 59.016 42.6803 57.256 42.6803 55.336V11.752C42.6803 9.768 42.2001 7.976 41.2402 6.376C40.2802 4.712 39.0003 3.4 37.4003 2.44C35.8003 1.48 34.0083 1 32.0243 1H18.6803C16.7359 1 14.9759 1.46099 13.4004 2.38298L6.47223 6.38298Z" fill="#9013FE"/>
<path fill-rule="evenodd" clip-rule="evenodd" d="M23.9441 16.808C23.688 16.552 23.4001 16.424 23.0801 16.424H13.7681C13.5377 16.424 13.3073 16.4904 13.0769 16.6231L20.0051 12.6231C20.2355 12.4904 20.4659 12.424 20.6963 12.424H30.0083C30.3283 12.424 30.6162 12.552 30.8723 12.808L23.9441 16.808Z" fill="#9013FE"/>
<path fill-rule="evenodd" clip-rule="evenodd" d="M13.0769 16.6231C12.9873 16.6747 12.8977 16.7363 12.8081 16.808L19.7363 12.808C19.8259 12.7363 19.9155 12.6747 20.0051 12.6231L13.0769 16.6231Z" fill="#9013FE"/>
<path fill-rule="evenodd" clip-rule="evenodd" d="M12.8081 16.808C12.5521 17.064 12.4241 17.384 12.4241 17.768V42.152C12.4241 42.472 12.5521 42.76 12.8081 43.016L19.7363 39.016C19.4803 38.76 19.3523 38.472 19.3523 38.152V13.768C19.3523 13.384 19.4803 13.064 19.7363 12.808L12.8081 16.808Z" fill="#9013FE"/>
<path fill-rule="evenodd" clip-rule="evenodd" d="M12.8081 43.016C13.1281 43.272 13.4481 43.4 13.7681 43.4H23.0801C23.2785 43.4 23.4645 43.3508 23.6383 43.2524L30.5665 39.2524C30.3927 39.3508 30.2067 39.4 30.0083 39.4H20.6963C20.3763 39.4 20.0563 39.272 19.7363 39.016L12.8081 43.016Z" fill="#9013FE"/>
<path fill-rule="evenodd" clip-rule="evenodd" d="M23.6383 43.2524C23.7448 43.1921 23.8467 43.1133 23.9441 43.016L30.8723 39.016C30.7749 39.1133 30.673 39.1921 30.5665 39.2524L23.6383 43.2524Z" fill="#9013FE"/>
<path fill-rule="evenodd" clip-rule="evenodd" d="M23.9441 43.016C24.2641 42.76 24.424 42.472 24.424 42.152V17.768C24.424 17.384 24.2641 17.064 23.9441 16.808L30.8723 12.808C31.1923 13.064 31.3522 13.384 31.3522 13.768V38.152C31.3522 38.472 31.1923 38.76 30.8723 39.016L23.9441 43.016Z" fill="#9013FE"/>
<path d="M35.752 59.336C35.752 61.256 35.2719 63.016 34.312 64.616C33.352 66.28 32.072 67.592 30.472 68.552C28.872 69.576 27.0801 70.088 25.0961 70.088H11.7521C10.5361 70.088 9.47995 69.64 8.58395 68.744C7.75205 67.912 7.33605 66.888 7.33605 65.672V62.984C7.33605 61.768 7.75205 60.744 8.58395 59.912C9.47995 59.08 10.5361 58.664 11.7521 58.664H23.08C23.4 58.664 23.6879 58.536 23.944 58.28C24.264 58.024 24.424 57.736 24.424 57.416V55.976C24.424 55.656 24.264 55.368 23.944 55.112C23.6879 54.856 23.4 54.728 23.08 54.728H11.7521C8.80805 54.728 6.28 53.704 4.168 51.656C2.056 49.544 1 46.984 1 43.976V15.752C1 13.768 1.48 11.976 2.44 10.376C3.464 8.712 4.776 7.4 6.376 6.44C7.97595 5.48 9.76805 5 11.7521 5H25.0961C27.0801 5 28.872 5.48 30.472 6.44C32.072 7.4 33.352 8.712 34.312 10.376C35.2719 11.976 35.752 13.768 35.752 15.752V59.336ZM24.424 42.152V17.768C24.424 17.384 24.264 17.064 23.944 16.808C23.6879 16.552 23.4 16.424 23.08 16.424H13.7681C13.4481 16.424 13.1281 16.552 12.8081 16.808C12.5521 17.064 12.4241 17.384 12.4241 17.768V42.152C12.4241 42.472 12.5521 42.76 12.8081 43.016C13.1281 43.272 13.4481 43.4 13.7681 43.4H23.08C23.4 43.4 23.6879 43.272 23.944 43.016C24.264 42.76 24.424 42.472 24.424 42.152Z" fill="white"/>
</svg>
